ISO-10303-21;
HEADER;
/* Generated by software containing ST-Developer
 * from STEP Tools, Inc. (www.steptools.com) 
 */

FILE_DESCRIPTION(
/* description */ (''),
/* implementation_level */ '2;1');

FILE_NAME(
/* name */ '',
/* time_stamp */ '2026-05-08T23:32:54+08:00',
/* author */ (''),
/* organization */ (''),
/* preprocessor_version */ 'ST-DEVELOPER v20.1',
/* originating_system */ 'Autodesk Translation Framework v14.4.0.0',
/* authorisation */ '');

FILE_SCHEMA (('AUTOMOTIVE_DESIGN { 1 0 10303 214 3 1 1 }'));
ENDSEC;

DATA;
#10=MECHANICAL_DESIGN_GEOMETRIC_PRESENTATION_REPRESENTATION('',(#13),#389);
#11=SHAPE_REPRESENTATION_RELATIONSHIP('SRR','None',#396,#12);
#12=ADVANCED_BREP_SHAPE_REPRESENTATION('',(#14),#388);
#13=STYLED_ITEM('',(#405),#14);
#14=MANIFOLD_SOLID_BREP('\X2\5B9E4F53\X0\1',#234);
#15=FACE_BOUND('',#46,.T.);
#16=FACE_BOUND('',#56,.T.);
#17=FACE_BOUND('',#58,.T.);
#18=PLANE('',#253);
#19=PLANE('',#254);
#20=PLANE('',#255);
#21=PLANE('',#256);
#22=PLANE('',#257);
#23=PLANE('',#258);
#24=PLANE('',#259);
#25=PLANE('',#260);
#26=PLANE('',#261);
#27=PLANE('',#262);
#28=PLANE('',#263);
#29=CYLINDRICAL_SURFACE('',#251,17.5);
#30=FACE_OUTER_BOUND('',#43,.T.);
#31=FACE_OUTER_BOUND('',#44,.T.);
#32=FACE_OUTER_BOUND('',#45,.T.);
#33=FACE_OUTER_BOUND('',#47,.T.);
#34=FACE_OUTER_BOUND('',#48,.T.);
#35=FACE_OUTER_BOUND('',#49,.T.);
#36=FACE_OUTER_BOUND('',#50,.T.);
#37=FACE_OUTER_BOUND('',#51,.T.);
#38=FACE_OUTER_BOUND('',#52,.T.);
#39=FACE_OUTER_BOUND('',#53,.T.);
#40=FACE_OUTER_BOUND('',#54,.T.);
#41=FACE_OUTER_BOUND('',#55,.T.);
#42=FACE_OUTER_BOUND('',#57,.T.);
#43=EDGE_LOOP('',(#162,#163,#164,#165));
#44=EDGE_LOOP('',(#166,#167,#168,#169));
#45=EDGE_LOOP('',(#170,#171,#172,#173));
#46=EDGE_LOOP('',(#174));
#47=EDGE_LOOP('',(#175,#176,#177,#178));
#48=EDGE_LOOP('',(#179,#180,#181,#182));
#49=EDGE_LOOP('',(#183,#184,#185,#186));
#50=EDGE_LOOP('',(#187,#188,#189,#190));
#51=EDGE_LOOP('',(#191,#192,#193,#194));
#52=EDGE_LOOP('',(#195,#196,#197,#198));
#53=EDGE_LOOP('',(#199,#200,#201,#202));
#54=EDGE_LOOP('',(#203,#204,#205,#206));
#55=EDGE_LOOP('',(#207,#208,#209,#210));
#56=EDGE_LOOP('',(#211,#212,#213,#214));
#57=EDGE_LOOP('',(#215,#216,#217,#218));
#58=EDGE_LOOP('',(#219));
#59=LINE('',#329,#85);
#60=LINE('',#333,#86);
#61=LINE('',#338,#87);
#62=LINE('',#340,#88);
#63=LINE('',#342,#89);
#64=LINE('',#343,#90);
#65=LINE('',#347,#91);
#66=LINE('',#348,#92);
#67=LINE('',#349,#93);
#68=LINE('',#352,#94);
#69=LINE('',#353,#95);
#70=LINE('',#356,#96);
#71=LINE('',#357,#97);
#72=LINE('',#359,#98);
#73=LINE('',#363,#99);
#74=LINE('',#365,#100);
#75=LINE('',#367,#101);
#76=LINE('',#368,#102);
#77=LINE('',#371,#103);
#78=LINE('',#373,#104);
#79=LINE('',#374,#105);
#80=LINE('',#377,#106);
#81=LINE('',#379,#107);
#82=LINE('',#380,#108);
#83=LINE('',#382,#109);
#84=LINE('',#383,#110);
#85=VECTOR('',#270,20.);
#86=VECTOR('',#275,17.5);
#87=VECTOR('',#280,10.);
#88=VECTOR('',#281,10.);
#89=VECTOR('',#282,10.);
#90=VECTOR('',#283,10.);
#91=VECTOR('',#286,10.);
#92=VECTOR('',#287,10.);
#93=VECTOR('',#288,10.);
#94=VECTOR('',#291,10.);
#95=VECTOR('',#292,10.);
#96=VECTOR('',#295,10.);
#97=VECTOR('',#296,10.);
#98=VECTOR('',#299,10.);
#99=VECTOR('',#302,10.);
#100=VECTOR('',#303,10.);
#101=VECTOR('',#304,10.);
#102=VECTOR('',#305,10.);
#103=VECTOR('',#308,10.);
#104=VECTOR('',#309,10.);
#105=VECTOR('',#310,10.);
#106=VECTOR('',#313,10.);
#107=VECTOR('',#314,10.);
#108=VECTOR('',#315,10.);
#109=VECTOR('',#318,10.);
#110=VECTOR('',#319,10.);
#111=CIRCLE('',#249,22.5);
#112=CIRCLE('',#250,17.5);
#113=CIRCLE('',#252,17.5);
#114=VERTEX_POINT('',#326);
#115=VERTEX_POINT('',#328);
#116=VERTEX_POINT('',#332);
#117=VERTEX_POINT('',#336);
#118=VERTEX_POINT('',#337);
#119=VERTEX_POINT('',#339);
#120=VERTEX_POINT('',#341);
#121=VERTEX_POINT('',#345);
#122=VERTEX_POINT('',#346);
#123=VERTEX_POINT('',#351);
#124=VERTEX_POINT('',#355);
#125=VERTEX_POINT('',#361);
#126=VERTEX_POINT('',#362);
#127=VERTEX_POINT('',#364);
#128=VERTEX_POINT('',#366);
#129=VERTEX_POINT('',#370);
#130=VERTEX_POINT('',#372);
#131=VERTEX_POINT('',#376);
#132=VERTEX_POINT('',#378);
#133=EDGE_CURVE('',#114,#114,#111,.T.);
#134=EDGE_CURVE('',#114,#115,#59,.T.);
#135=EDGE_CURVE('',#115,#115,#112,.T.);
#136=EDGE_CURVE('',#115,#116,#60,.T.);
#137=EDGE_CURVE('',#116,#116,#113,.T.);
#138=EDGE_CURVE('',#117,#118,#61,.T.);
#139=EDGE_CURVE('',#118,#119,#62,.T.);
#140=EDGE_CURVE('',#119,#120,#63,.T.);
#141=EDGE_CURVE('',#120,#117,#64,.T.);
#142=EDGE_CURVE('',#121,#122,#65,.T.);
#143=EDGE_CURVE('',#121,#117,#66,.T.);
#144=EDGE_CURVE('',#122,#120,#67,.T.);
#145=EDGE_CURVE('',#122,#123,#68,.T.);
#146=EDGE_CURVE('',#123,#119,#69,.T.);
#147=EDGE_CURVE('',#123,#124,#70,.T.);
#148=EDGE_CURVE('',#124,#118,#71,.T.);
#149=EDGE_CURVE('',#124,#121,#72,.T.);
#150=EDGE_CURVE('',#125,#126,#73,.T.);
#151=EDGE_CURVE('',#125,#127,#74,.T.);
#152=EDGE_CURVE('',#128,#127,#75,.T.);
#153=EDGE_CURVE('',#126,#128,#76,.T.);
#154=EDGE_CURVE('',#126,#129,#77,.T.);
#155=EDGE_CURVE('',#130,#128,#78,.T.);
#156=EDGE_CURVE('',#129,#130,#79,.T.);
#157=EDGE_CURVE('',#129,#131,#80,.T.);
#158=EDGE_CURVE('',#132,#130,#81,.T.);
#159=EDGE_CURVE('',#131,#132,#82,.T.);
#160=EDGE_CURVE('',#131,#125,#83,.T.);
#161=EDGE_CURVE('',#127,#132,#84,.T.);
#162=ORIENTED_EDGE('',*,*,#133,.T.);
#163=ORIENTED_EDGE('',*,*,#134,.T.);
#164=ORIENTED_EDGE('',*,*,#135,.T.);
#165=ORIENTED_EDGE('',*,*,#134,.F.);
#166=ORIENTED_EDGE('',*,*,#135,.F.);
#167=ORIENTED_EDGE('',*,*,#136,.T.);
#168=ORIENTED_EDGE('',*,*,#137,.F.);
#169=ORIENTED_EDGE('',*,*,#136,.F.);
#170=ORIENTED_EDGE('',*,*,#138,.T.);
#171=ORIENTED_EDGE('',*,*,#139,.T.);
#172=ORIENTED_EDGE('',*,*,#140,.T.);
#173=ORIENTED_EDGE('',*,*,#141,.T.);
#174=ORIENTED_EDGE('',*,*,#133,.F.);
#175=ORIENTED_EDGE('',*,*,#142,.F.);
#176=ORIENTED_EDGE('',*,*,#143,.T.);
#177=ORIENTED_EDGE('',*,*,#141,.F.);
#178=ORIENTED_EDGE('',*,*,#144,.F.);
#179=ORIENTED_EDGE('',*,*,#145,.F.);
#180=ORIENTED_EDGE('',*,*,#144,.T.);
#181=ORIENTED_EDGE('',*,*,#140,.F.);
#182=ORIENTED_EDGE('',*,*,#146,.F.);
#183=ORIENTED_EDGE('',*,*,#147,.F.);
#184=ORIENTED_EDGE('',*,*,#146,.T.);
#185=ORIENTED_EDGE('',*,*,#139,.F.);
#186=ORIENTED_EDGE('',*,*,#148,.F.);
#187=ORIENTED_EDGE('',*,*,#149,.F.);
#188=ORIENTED_EDGE('',*,*,#148,.T.);
#189=ORIENTED_EDGE('',*,*,#138,.F.);
#190=ORIENTED_EDGE('',*,*,#143,.F.);
#191=ORIENTED_EDGE('',*,*,#150,.F.);
#192=ORIENTED_EDGE('',*,*,#151,.T.);
#193=ORIENTED_EDGE('',*,*,#152,.F.);
#194=ORIENTED_EDGE('',*,*,#153,.F.);
#195=ORIENTED_EDGE('',*,*,#154,.F.);
#196=ORIENTED_EDGE('',*,*,#153,.T.);
#197=ORIENTED_EDGE('',*,*,#155,.F.);
#198=ORIENTED_EDGE('',*,*,#156,.F.);
#199=ORIENTED_EDGE('',*,*,#157,.F.);
#200=ORIENTED_EDGE('',*,*,#156,.T.);
#201=ORIENTED_EDGE('',*,*,#158,.F.);
#202=ORIENTED_EDGE('',*,*,#159,.F.);
#203=ORIENTED_EDGE('',*,*,#160,.F.);
#204=ORIENTED_EDGE('',*,*,#159,.T.);
#205=ORIENTED_EDGE('',*,*,#161,.F.);
#206=ORIENTED_EDGE('',*,*,#151,.F.);
#207=ORIENTED_EDGE('',*,*,#161,.T.);
#208=ORIENTED_EDGE('',*,*,#158,.T.);
#209=ORIENTED_EDGE('',*,*,#155,.T.);
#210=ORIENTED_EDGE('',*,*,#152,.T.);
#211=ORIENTED_EDGE('',*,*,#142,.T.);
#212=ORIENTED_EDGE('',*,*,#145,.T.);
#213=ORIENTED_EDGE('',*,*,#147,.T.);
#214=ORIENTED_EDGE('',*,*,#149,.T.);
#215=ORIENTED_EDGE('',*,*,#160,.T.);
#216=ORIENTED_EDGE('',*,*,#150,.T.);
#217=ORIENTED_EDGE('',*,*,#154,.T.);
#218=ORIENTED_EDGE('',*,*,#157,.T.);
#219=ORIENTED_EDGE('',*,*,#137,.T.);
#220=CONICAL_SURFACE('',#248,20.,0.785398163397448);
#221=ADVANCED_FACE('',(#30),#220,.F.);
#222=ADVANCED_FACE('',(#31),#29,.F.);
#223=ADVANCED_FACE('',(#32,#15),#18,.T.);
#224=ADVANCED_FACE('',(#33),#19,.T.);
#225=ADVANCED_FACE('',(#34),#20,.T.);
#226=ADVANCED_FACE('',(#35),#21,.T.);
#227=ADVANCED_FACE('',(#36),#22,.T.);
#228=ADVANCED_FACE('',(#37),#23,.T.);
#229=ADVANCED_FACE('',(#38),#24,.T.);
#230=ADVANCED_FACE('',(#39),#25,.T.);
#231=ADVANCED_FACE('',(#40),#26,.T.);
#232=ADVANCED_FACE('',(#41,#16),#27,.T.);
#233=ADVANCED_FACE('',(#42,#17),#28,.F.);
#234=CLOSED_SHELL('',(#221,#222,#223,#224,#225,#226,#227,#228,#229,#230,
#231,#232,#233));
#235=DERIVED_UNIT_ELEMENT(#237,1.);
#236=DERIVED_UNIT_ELEMENT(#391,-3.);
#237=(
MASS_UNIT()
NAMED_UNIT(*)
SI_UNIT(.KILO.,.GRAM.)
);
#238=DERIVED_UNIT((#235,#236));
#239=MEASURE_REPRESENTATION_ITEM('density measure',
POSITIVE_RATIO_MEASURE(7850.),#238);
#240=PROPERTY_DEFINITION_REPRESENTATION(#245,#242);
#241=PROPERTY_DEFINITION_REPRESENTATION(#246,#243);
#242=REPRESENTATION('material name',(#244),#388);
#243=REPRESENTATION('density',(#239),#388);
#244=DESCRIPTIVE_REPRESENTATION_ITEM('\X2\94A2\X0\','\X2\94A2\X0\');
#245=PROPERTY_DEFINITION('material property','material name',#398);
#246=PROPERTY_DEFINITION('material property','density of part',#398);
#247=AXIS2_PLACEMENT_3D('',#324,#264,#265);
#248=AXIS2_PLACEMENT_3D('',#325,#266,#267);
#249=AXIS2_PLACEMENT_3D('',#327,#268,#269);
#250=AXIS2_PLACEMENT_3D('',#330,#271,#272);
#251=AXIS2_PLACEMENT_3D('',#331,#273,#274);
#252=AXIS2_PLACEMENT_3D('',#334,#276,#277);
#253=AXIS2_PLACEMENT_3D('',#335,#278,#279);
#254=AXIS2_PLACEMENT_3D('',#344,#284,#285);
#255=AXIS2_PLACEMENT_3D('',#350,#289,#290);
#256=AXIS2_PLACEMENT_3D('',#354,#293,#294);
#257=AXIS2_PLACEMENT_3D('',#358,#297,#298);
#258=AXIS2_PLACEMENT_3D('',#360,#300,#301);
#259=AXIS2_PLACEMENT_3D('',#369,#306,#307);
#260=AXIS2_PLACEMENT_3D('',#375,#311,#312);
#261=AXIS2_PLACEMENT_3D('',#381,#316,#317);
#262=AXIS2_PLACEMENT_3D('',#384,#320,#321);
#263=AXIS2_PLACEMENT_3D('',#385,#322,#323);
#264=DIRECTION('axis',(0.,0.,1.));
#265=DIRECTION('refdir',(1.,0.,0.));
#266=DIRECTION('center_axis',(0.,0.,1.));
#267=DIRECTION('ref_axis',(-1.,0.,0.));
#268=DIRECTION('center_axis',(0.,0.,1.));
#269=DIRECTION('ref_axis',(-1.,0.,0.));
#270=DIRECTION('',(-0.707106781186547,-8.65956056235493E-17,-0.707106781186548));
#271=DIRECTION('center_axis',(0.,0.,-1.));
#272=DIRECTION('ref_axis',(-1.,0.,0.));
#273=DIRECTION('center_axis',(0.,0.,-1.));
#274=DIRECTION('ref_axis',(-1.,0.,0.));
#275=DIRECTION('',(0.,0.,-1.));
#276=DIRECTION('center_axis',(0.,0.,1.));
#277=DIRECTION('ref_axis',(-1.,0.,0.));
#278=DIRECTION('center_axis',(0.,0.,1.));
#279=DIRECTION('ref_axis',(1.,0.,0.));
#280=DIRECTION('',(1.,0.,0.));
#281=DIRECTION('',(0.,1.,0.));
#282=DIRECTION('',(-1.,0.,0.));
#283=DIRECTION('',(0.,-1.,0.));
#284=DIRECTION('center_axis',(-1.,0.,0.));
#285=DIRECTION('ref_axis',(0.,-1.,0.));
#286=DIRECTION('',(0.,1.,0.));
#287=DIRECTION('',(0.,0.,1.));
#288=DIRECTION('',(0.,0.,1.));
#289=DIRECTION('center_axis',(0.,1.,0.));
#290=DIRECTION('ref_axis',(-1.,0.,0.));
#291=DIRECTION('',(1.,0.,0.));
#292=DIRECTION('',(0.,0.,1.));
#293=DIRECTION('center_axis',(1.,0.,0.));
#294=DIRECTION('ref_axis',(0.,1.,0.));
#295=DIRECTION('',(0.,-1.,0.));
#296=DIRECTION('',(0.,0.,1.));
#297=DIRECTION('center_axis',(0.,-1.,0.));
#298=DIRECTION('ref_axis',(1.,0.,0.));
#299=DIRECTION('',(-1.,0.,0.));
#300=DIRECTION('center_axis',(-1.,0.,0.));
#301=DIRECTION('ref_axis',(0.,-1.,0.));
#302=DIRECTION('',(0.,1.,0.));
#303=DIRECTION('',(0.,0.,1.));
#304=DIRECTION('',(0.,-1.,0.));
#305=DIRECTION('',(0.,0.,1.));
#306=DIRECTION('center_axis',(0.,1.,0.));
#307=DIRECTION('ref_axis',(-1.,0.,0.));
#308=DIRECTION('',(1.,0.,0.));
#309=DIRECTION('',(-1.,0.,0.));
#310=DIRECTION('',(0.,0.,1.));
#311=DIRECTION('center_axis',(1.,0.,0.));
#312=DIRECTION('ref_axis',(0.,1.,0.));
#313=DIRECTION('',(0.,-1.,0.));
#314=DIRECTION('',(0.,1.,0.));
#315=DIRECTION('',(0.,0.,1.));
#316=DIRECTION('center_axis',(0.,-1.,0.));
#317=DIRECTION('ref_axis',(1.,0.,0.));
#318=DIRECTION('',(-1.,0.,0.));
#319=DIRECTION('',(1.,0.,0.));
#320=DIRECTION('center_axis',(0.,0.,1.));
#321=DIRECTION('ref_axis',(1.,0.,0.));
#322=DIRECTION('center_axis',(0.,0.,1.));
#323=DIRECTION('ref_axis',(1.,0.,0.));
#324=CARTESIAN_POINT('',(0.,0.,0.));
#325=CARTESIAN_POINT('Origin',(0.,0.,57.5));
#326=CARTESIAN_POINT('',(22.5,2.75545529808154E-15,60.));
#327=CARTESIAN_POINT('Origin',(0.,0.,60.));
#328=CARTESIAN_POINT('',(17.5,-2.14313189850787E-15,55.));
#329=CARTESIAN_POINT('',(20.,2.44929359829471E-15,57.5));
#330=CARTESIAN_POINT('Origin',(0.,0.,55.));
#331=CARTESIAN_POINT('Origin',(0.,0.,60.));
#332=CARTESIAN_POINT('',(17.5,2.14313189850787E-15,0.));
#333=CARTESIAN_POINT('',(17.5,-2.14313189850787E-15,60.));
#334=CARTESIAN_POINT('Origin',(0.,0.,0.));
#335=CARTESIAN_POINT('Origin',(0.,1.77635683940025E-14,60.));
#336=CARTESIAN_POINT('',(-25.,-25.,60.));
#337=CARTESIAN_POINT('',(25.,-25.,60.));
#338=CARTESIAN_POINT('',(25.,-25.,60.));
#339=CARTESIAN_POINT('',(25.,25.,60.));
#340=CARTESIAN_POINT('',(25.,25.,60.));
#341=CARTESIAN_POINT('',(-25.,25.,60.));
#342=CARTESIAN_POINT('',(-25.,25.,60.));
#343=CARTESIAN_POINT('',(-25.,-25.,60.));
#344=CARTESIAN_POINT('Origin',(-25.,25.,10.));
#345=CARTESIAN_POINT('',(-25.,-25.,10.));
#346=CARTESIAN_POINT('',(-25.,25.,10.));
#347=CARTESIAN_POINT('',(-25.,12.5,10.));
#348=CARTESIAN_POINT('',(-25.,-25.,10.));
#349=CARTESIAN_POINT('',(-25.,25.,10.));
#350=CARTESIAN_POINT('Origin',(25.,25.,10.));
#351=CARTESIAN_POINT('',(25.,25.,10.));
#352=CARTESIAN_POINT('',(12.5,25.,10.));
#353=CARTESIAN_POINT('',(25.,25.,10.));
#354=CARTESIAN_POINT('Origin',(25.,-25.,10.));
#355=CARTESIAN_POINT('',(25.,-25.,10.));
#356=CARTESIAN_POINT('',(25.,-12.5,10.));
#357=CARTESIAN_POINT('',(25.,-25.,10.));
#358=CARTESIAN_POINT('Origin',(-25.,-25.,10.));
#359=CARTESIAN_POINT('',(-12.5,-25.,10.));
#360=CARTESIAN_POINT('Origin',(-125.,125.,0.));
#361=CARTESIAN_POINT('',(-125.,-125.,0.));
#362=CARTESIAN_POINT('',(-125.,125.,0.));
#363=CARTESIAN_POINT('',(-125.,-125.,0.));
#364=CARTESIAN_POINT('',(-125.,-125.,10.));
#365=CARTESIAN_POINT('',(-125.,-125.,0.));
#366=CARTESIAN_POINT('',(-125.,125.,10.));
#367=CARTESIAN_POINT('',(-125.,-125.,10.));
#368=CARTESIAN_POINT('',(-125.,125.,0.));
#369=CARTESIAN_POINT('Origin',(125.,125.,0.));
#370=CARTESIAN_POINT('',(125.,125.,0.));
#371=CARTESIAN_POINT('',(-125.,125.,0.));
#372=CARTESIAN_POINT('',(125.,125.,10.));
#373=CARTESIAN_POINT('',(-125.,125.,10.));
#374=CARTESIAN_POINT('',(125.,125.,0.));
#375=CARTESIAN_POINT('Origin',(125.,-125.,0.));
#376=CARTESIAN_POINT('',(125.,-125.,0.));
#377=CARTESIAN_POINT('',(125.,125.,0.));
#378=CARTESIAN_POINT('',(125.,-125.,10.));
#379=CARTESIAN_POINT('',(125.,125.,10.));
#380=CARTESIAN_POINT('',(125.,-125.,0.));
#381=CARTESIAN_POINT('Origin',(-125.,-125.,0.));
#382=CARTESIAN_POINT('',(125.,-125.,0.));
#383=CARTESIAN_POINT('',(125.,-125.,10.));
#384=CARTESIAN_POINT('Origin',(0.,0.,10.));
#385=CARTESIAN_POINT('Origin',(0.,0.,0.));
#386=UNCERTAINTY_MEASURE_WITH_UNIT(LENGTH_MEASURE(0.01),#390,
'DISTANCE_ACCURACY_VALUE',
'Maximum model space distance between geometric entities at asserted c
onnectivities');
#387=UNCERTAINTY_MEASURE_WITH_UNIT(LENGTH_MEASURE(0.01),#390,
'DISTANCE_ACCURACY_VALUE',
'Maximum model space distance between geometric entities at asserted c
onnectivities');
#388=(
GEOMETRIC_REPRESENTATION_CONTEXT(3)
GLOBAL_UNCERTAINTY_ASSIGNED_CONTEXT((#386))
GLOBAL_UNIT_ASSIGNED_CONTEXT((#390,#392,#393))
REPRESENTATION_CONTEXT('','3D')
);
#389=(
GEOMETRIC_REPRESENTATION_CONTEXT(3)
GLOBAL_UNCERTAINTY_ASSIGNED_CONTEXT((#387))
GLOBAL_UNIT_ASSIGNED_CONTEXT((#390,#392,#393))
REPRESENTATION_CONTEXT('','3D')
);
#390=(
LENGTH_UNIT()
NAMED_UNIT(*)
SI_UNIT(.MILLI.,.METRE.)
);
#391=(
LENGTH_UNIT()
NAMED_UNIT(*)
SI_UNIT($,.METRE.)
);
#392=(
NAMED_UNIT(*)
PLANE_ANGLE_UNIT()
SI_UNIT($,.RADIAN.)
);
#393=(
NAMED_UNIT(*)
SI_UNIT($,.STERADIAN.)
SOLID_ANGLE_UNIT()
);
#394=SHAPE_DEFINITION_REPRESENTATION(#395,#396);
#395=PRODUCT_DEFINITION_SHAPE('',$,#398);
#396=SHAPE_REPRESENTATION('',(#247),#388);
#397=PRODUCT_DEFINITION_CONTEXT('part definition',#402,'design');
#398=PRODUCT_DEFINITION('Fusion \X2\96F690E84EF6\X0\',
'Fusion \X2\96F690E84EF6\X0\',#399,#397);
#399=PRODUCT_DEFINITION_FORMATION('',$,#404);
#400=PRODUCT_RELATED_PRODUCT_CATEGORY('Fusion \X2\96F690E84EF6\X0\',
'Fusion \X2\96F690E84EF6\X0\',(#404));
#401=APPLICATION_PROTOCOL_DEFINITION('international standard',
'automotive_design',2009,#402);
#402=APPLICATION_CONTEXT(
'Core Data for Automotive Mechanical Design Process');
#403=PRODUCT_CONTEXT('part definition',#402,'mechanical');
#404=PRODUCT('Fusion \X2\96F690E84EF6\X0\','Fusion \X2\96F690E84EF6\X0\',
$,(#403));
#405=PRESENTATION_STYLE_ASSIGNMENT((#406));
#406=SURFACE_STYLE_USAGE(.BOTH.,#407);
#407=SURFACE_SIDE_STYLE('',(#408));
#408=SURFACE_STYLE_FILL_AREA(#409);
#409=FILL_AREA_STYLE('\X2\94A2\X0\ - \X2\7F0E5149\X0\',(#410));
#410=FILL_AREA_STYLE_COLOUR('\X2\94A2\X0\ - \X2\7F0E5149\X0\',#411);
#411=COLOUR_RGB('\X2\94A2\X0\ - \X2\7F0E5149\X0\',0.627450980392157,0.627450980392157,
0.627450980392157);
ENDSEC;
END-ISO-10303-21;
